<svg xmlns="http://www.w3.org/2000/svg" viewBox="0 0 320 240">
  <defs>
    <linearGradient id="nyxBg" x1="0" y1="0" x2="1" y2="1">
      <stop offset="0%" stop-color="#18172d"/>
      <stop offset="100%" stop-color="#2f2753"/>
    </linearGradient>
  </defs>
  <rect width="320" height="240" rx="28" fill="url(#nyxBg)"/>
  <circle cx="64" cy="54" r="50" fill="#9d8cff" opacity=".14"/>
  <rect x="76" y="178" width="168" height="20" rx="10" fill="#0d0918" opacity=".68"/>
  <path d="M160 46 214 82 212 170 108 170 106 82Z" fill="#221d3d"/>
  <path d="M160 56 198 84 196 160 124 160 122 84Z" fill="#312956"/>
  <circle cx="160" cy="82" r="29" fill="#ffd8c8"/>
  <path d="M130 76c12-26 52-30 62 2-18 6-44 9-62-2Z" fill="#d7d2ff"/>
  <rect x="133" y="90" width="54" height="12" rx="6" fill="#0a0812"/>
  <rect x="126" y="110" width="68" height="24" rx="12" fill="#9d8cff"/>
  <path d="M110 102 86 144 108 156 134 126Z" fill="#ded6ff"/>
  <path d="M210 102 234 144 212 156 186 126Z" fill="#ded6ff"/>
  <path d="M130 136h60l14 34H116Z" fill="#130f24"/>
</svg>
