<svg xmlns="http://www.w3.org/2000/svg" viewBox="0 0 320 240">
  <defs>
    <linearGradient id="solBg" x1="0" y1="0" x2="1" y2="1">
      <stop offset="0%" stop-color="#3a2f12"/>
      <stop offset="100%" stop-color="#65501d"/>
    </linearGradient>
  </defs>
  <rect width="320" height="240" rx="28" fill="url(#solBg)"/>
  <circle cx="250" cy="56" r="52" fill="#f5d36d" opacity=".16"/>
  <rect x="72" y="178" width="176" height="20" rx="10" fill="#181105" opacity=".64"/>
  <path d="M160 48 212 84 214 172 106 172 108 84Z" fill="#423415"/>
  <path d="M160 58 198 86 200 160 120 160 122 86Z" fill="#5e4a1d"/>
  <circle cx="160" cy="82" r="30" fill="#ffd8c8"/>
  <path d="M128 77c12-24 54-28 64 8-16 5-43 5-64-8Z" fill="#fff0bf"/>
  <rect x="132" y="90" width="56" height="12" rx="6" fill="#10100a"/>
  <rect x="124" y="110" width="72" height="24" rx="12" fill="#f5d36d"/>
  <path d="M110 100 86 144 110 158 134 126Z" fill="#fff0bf"/>
  <path d="M210 100 234 144 210 158 186 126Z" fill="#fff0bf"/>
  <path d="M130 136h60l20 34H110Z" fill="#241b08"/>
</svg>
